<svg xmlns="http://www.w3.org/2000/svg" xmlns:xlink="http://www.w3.org/1999/xlink" width="40" height="40" viewBox="0 0 40 40">
    <defs>
        <clipPath id="clip-path">
            <rect width="40" height="40" fill="none"/>
        </clipPath>
    </defs>
    <g id="Search_Camera" clip-path="url(#clip-path)">
        <rect id="BG" width="40" height="40" rx="20" fill="#00c569"/>
        <g id="Group_205" transform="translate(10 10)">
            <g id="Group_204">
                <g id="Group_202">
                    <path id="Path_29" d="M16.76,3.6H15.28L14.88,2a2.61,2.61,0,0,0-2.56-2H7.68A2.654,2.654,0,0,0,5.12,2l-.4,1.6H3.24A3.227,3.227,0,0,0,0,6.84v9.92A3.227,3.227,0,0,0,3.24,20H16.76A3.227,3.227,0,0,0,20,16.76V6.84A3.227,3.227,0,0,0,16.76,3.6ZM18,16.76A1.246,1.246,0,0,1,16.76,18H3.24A1.246,1.246,0,0,1,2,16.76V6.84A1.246,1.246,0,0,1,3.24,5.6H5.32a1.285,1.285,0,0,0,1.2-.92L7.04,2.6A.771.771,0,0,1,7.8,2h4.44a.771.771,0,0,1,.76.6l.52,2.08a1.2,1.2,0,0,0,1.2.92H16.8a1.246,1.246,0,0,1,1.24,1.24v9.92Z" fill="#fff"/>
                </g>
            </g>
            <path id="Path_30" d="M17.8,19A2.8,2.8,0,1,1,15,21.8,2.783,2.783,0,0,1,17.8,19m0-2a4.8,4.8,0,1,0,4.8,4.8A4.814,4.814,0,0,0,17.8,17Z" transform="translate(-7.8 -10.2)" fill="#fff"/>
        </g>
    </g>
</svg>
